<?xml version="1.0" standalone="no"?>
<!DOCTYPE svg PUBLIC "-//W3C//DTD SVG 20010904//EN"
 "http://www.w3.org/TR/2001/REC-SVG-20010904/DTD/svg10.dtd">
<svg version="1.0" xmlns="http://www.w3.org/2000/svg"
 width="1920.000000pt" height="1920.000000pt" viewBox="0 0 1920.000000 1920.000000"
 preserveAspectRatio="xMidYMid meet">
<metadata>
Created by potrace 1.14, written by Peter Selinger 2001-2017
</metadata>
<g transform="translate(0.000000,1920.000000) scale(0.100000,-0.100000)"
fill="#000000" stroke="none">
<path d="M8705 16733 c-654 -22 -1362 -103 -2000 -229 -789 -155 -1425 -359
-1992 -638 -93 -46 -184 -86 -203 -89 -23 -5 -44 -19 -62 -41 -15 -19 -44 -40
-64 -46 -20 -7 -55 -26 -78 -42 -110 -78 -209 -138 -227 -138 -12 0 -28 -14
-40 -35 -14 -23 -28 -35 -43 -35 -26 0 -46 -15 -69 -51 -9 -15 -28 -29 -45
-32 -20 -4 -45 -24 -74 -58 -23 -29 -68 -75 -98 -103 -102 -93 -190 -187 -190
-201 0 -7 -14 -24 -31 -36 -17 -12 -39 -38 -48 -58 -9 -20 -40 -75 -69 -123
-160 -264 -226 -537 -224 -933 1 -478 82 -1144 223 -1838 22 -109 39 -210 37
-225 -3 -24 -20 -34 -218 -119 -513 -221 -960 -463 -1405 -758 -372 -248 -406
-272 -539 -394 -45 -40 -130 -112 -190 -160 -152 -120 -200 -165 -266 -251
-32 -41 -81 -97 -109 -125 -28 -27 -51 -54 -51 -60 0 -6 -36 -59 -80 -118
-190 -257 -331 -529 -435 -842 -208 -624 -128 -1265 230 -1840 34 -55 67 -114
73 -132 6 -17 33 -65 60 -106 148 -218 317 -391 609 -620 48 -37 107 -95 133
-128 51 -66 153 -144 410 -314 411 -272 745 -448 1335 -703 611 -265 1399
-514 2175 -687 113 -25 215 -48 228 -50 13 -3 20 -10 17 -16 -7 -10 -55 -5
-110 12 -44 13 -262 49 -297 49 -25 0 -28 -3 -19 -14 17 -20 99 -53 153 -61
26 -4 49 -13 52 -21 7 -18 124 -76 211 -104 39 -12 75 -28 81 -35 5 -8 39 -21
75 -29 70 -16 319 -105 439 -155 41 -18 126 -46 189 -62 109 -28 147 -42 201
-74 14 -8 38 -15 55 -15 16 0 63 -11 105 -25 126 -42 371 -104 491 -123 63
-11 229 -42 369 -70 427 -86 451 -91 560 -102 58 -6 146 -18 197 -26 51 -8
118 -17 150 -18 32 -2 121 -15 198 -30 77 -15 185 -31 240 -36 55 -4 161 -15
235 -24 74 -8 162 -15 195 -14 33 1 94 -1 135 -5 163 -14 701 -29 807 -23 62
4 242 11 400 16 158 5 326 14 373 20 47 6 166 15 265 20 359 20 738 53 915 81
69 10 140 19 157 19 18 0 61 9 95 19 73 23 324 72 383 76 57 4 154 24 198 40
20 8 57 15 80 15 23 0 59 9 80 20 20 11 47 20 59 20 12 0 35 4 52 10 87 27
247 60 293 60 28 0 54 4 57 9 3 4 38 16 78 26 40 9 89 25 108 35 19 10 60 22
91 28 31 6 76 20 100 32 24 11 76 29 114 39 39 11 84 24 100 29 86 28 134 42
149 42 9 0 29 9 44 20 15 11 65 34 112 51 47 18 114 43 150 56 36 14 81 28
100 32 19 4 94 38 165 74 72 37 140 67 152 67 12 0 34 10 50 23 35 29 136 73
187 83 26 4 40 13 44 26 3 13 8 16 17 8 8 -7 18 -3 34 14 13 13 35 27 49 31
15 4 41 17 59 31 17 13 41 24 52 24 11 0 36 14 54 30 19 16 44 30 55 30 11 0
25 7 33 16 7 8 29 24 48 34 20 10 45 28 56 40 11 13 40 32 65 44 25 12 61 33
80 47 19 14 64 41 98 60 39 20 67 42 73 56 5 13 13 23 18 23 15 0 81 60 81 74
0 7 17 26 38 42 20 16 60 51 89 77 29 27 56 46 61 43 11 -7 126 110 145 149 8
17 24 39 36 49 11 10 23 34 27 52 3 19 12 34 20 34 8 0 14 4 14 9 0 5 16 26
35 47 19 20 32 40 29 45 -3 5 1 9 9 9 8 0 20 14 27 31 7 17 18 36 24 42 29 32
66 87 66 101 0 8 5 18 10 21 6 3 10 22 10 42 0 35 0 36 -35 30 -37 -6 -55 -14
-137 -61 -27 -15 -53 -26 -59 -24 -7 2 33 30 87 63 478 284 965 711 1263 1110
271 361 437 743 473 1090 16 160 16 468 -1 595 -76 584 -373 1183 -795 1600
-57 56 -86 93 -86 107 0 16 -13 31 -42 49 -24 15 -67 47 -95 72 -51 43 -53 46
-53 96 0 35 6 59 20 76 11 14 20 35 20 47 0 14 10 28 28 37 39 21 88 75 106
119 8 21 28 45 45 55 17 9 35 30 41 45 5 16 43 81 83 145 185 291 297 591 341
911 51 361 -22 740 -195 1016 -27 44 -59 99 -70 122 -11 25 -32 49 -49 58 -17
9 -30 21 -30 27 0 6 -18 26 -40 45 -22 19 -40 41 -40 49 0 8 -5 14 -11 14 -14
0 -142 103 -167 134 -21 26 -263 150 -390 200 -522 208 -1016 192 -1565 -48
-67 -30 -147 -62 -177 -71 -100 -32 -207 -96 -221 -133 -10 -26 -53 -45 -80
-37 -29 10 -32 41 -20 222 27 431 25 568 -15 758 -45 217 -150 444 -288 623
-31 40 -56 81 -56 92 0 11 -17 31 -42 49 -45 31 -261 249 -290 293 -10 15 -32
29 -50 33 -18 4 -41 18 -51 32 -10 13 -36 32 -58 43 -21 11 -43 29 -49 40 -6
11 -16 20 -23 20 -7 0 -40 20 -73 44 -151 112 -568 333 -858 455 -944 398
-2107 632 -3436 691 -200 9 -698 11 -915 3z m975 -143 c447 -23 693 -48 1189
-121 1245 -182 2331 -566 2991 -1057 156 -116 387 -348 469 -472 166 -249 235
-463 234 -730 0 -208 -39 -376 -129 -550 -104 -202 -333 -442 -576 -604 -526
-349 -1452 -678 -2393 -850 -1195 -219 -2426 -284 -3590 -190 -345 27 -665 64
-665 76 0 5 12 14 26 20 l25 12 -43 16 c-40 14 -43 18 -46 57 -3 40 -5 43 -40
48 -20 4 -57 13 -82 22 -117 39 -521 134 -595 139 -27 2 -51 8 -53 13 -2 6
-12 21 -23 35 -24 30 -63 34 -97 10 -15 -10 -32 -14 -48 -10 -35 9 -19 29 18
22 18 -3 27 -2 23 4 -3 6 -24 10 -46 10 -50 0 -79 15 -79 40 0 17 -43 60 -61
60 -4 0 -20 -11 -36 -23 -39 -33 -73 -41 -73 -17 0 11 5 22 10 25 18 11 -9 35
-39 35 -59 0 -104 13 -109 32 -2 11 -13 18 -27 18 -12 0 -28 7 -35 15 -9 11
-16 13 -24 5 -13 -13 -73 -13 -81 1 -4 5 0 18 9 28 23 25 20 36 -15 65 -20 17
-42 26 -65 26 -39 0 -84 36 -84 68 0 11 -7 26 -16 33 -14 12 -20 9 -40 -16
-13 -17 -24 -33 -24 -37 0 -11 -63 11 -93 33 -17 12 -47 21 -80 24 -69 4 -117
15 -144 33 -20 13 -24 12 -29 -2 -3 -9 -12 -16 -19 -16 -23 0 -28 20 -9 41 16
18 16 19 -9 19 -14 0 -28 -6 -30 -12 -9 -21 -27 13 -21 38 4 14 0 23 -12 28
-25 9 -27 3 -28 -70 -1 -56 -4 -68 -25 -85 -25 -21 -61 -25 -61 -8 0 6 7 9 15
5 25 -9 17 21 -11 43 -35 27 -48 26 -68 -4 -20 -30 -36 -32 -36 -5 0 25 39 50
83 53 37 3 77 30 77 54 0 16 -22 17 -38 1 -9 -9 -15 -9 -24 0 -9 9 -9 15 0 24
8 8 9 15 1 25 -13 15 -49 18 -49 3 0 -5 -4 -10 -10 -10 -5 0 -10 8 -10 19 0
27 -27 45 -66 44 -28 -1 -34 3 -34 19 0 16 5 19 25 16 34 -7 33 19 0 28 -18 4
-32 1 -46 -12 -20 -18 -21 -18 -35 0 -9 13 -10 24 -3 38 13 24 4 38 -27 38
-19 0 -24 5 -24 25 0 16 -11 32 -30 47 -16 12 -30 27 -30 32 0 6 -40 36 -89
68 -109 69 -164 134 -155 186 6 29 3 33 -26 46 -21 8 -28 16 -21 21 7 4 18 5
25 2 8 -3 16 10 24 37 7 29 19 46 36 54 29 13 33 27 11 36 -24 9 -40 -3 -54
-39 -15 -43 -25 -44 -41 -6 -6 16 -19 32 -27 35 -14 6 -13 9 2 26 10 11 32 24
49 28 33 9 35 19 20 104 -8 49 5 70 50 74 48 4 56 10 56 40 0 17 -8 27 -25 34
-22 8 -25 16 -25 55 0 30 5 47 14 51 17 7 22 19 46 111 26 100 54 149 100 178
22 14 40 29 40 33 0 4 7 49 15 101 16 104 28 130 44 88 14 -37 30 -34 76 14
37 38 39 42 21 53 -52 32 -58 40 -47 69 11 27 14 28 99 31 12 1 26 7 31 15 5
8 16 11 30 6 11 -3 26 -1 33 5 7 6 34 24 60 40 41 25 46 32 45 62 -1 18 -8 38
-16 44 -25 19 24 28 51 10 31 -22 45 -20 80 9 16 14 37 25 46 25 62 1 142 73
142 129 0 23 1 23 18 8 24 -22 36 -21 97 2 33 13 55 29 66 47 21 39 54 42 84
10 38 -41 105 -29 105 19 0 32 -16 40 -30 15 -6 -11 -20 -20 -30 -20 -24 0
-24 1 -3 45 20 42 11 56 -20 28 l-22 -21 -38 44 c-42 48 -36 53 35 27 44 -15
49 -15 92 1 41 16 96 65 96 86 0 5 -10 12 -22 16 -22 7 -22 7 -3 15 31 12 35
11 47 -16 11 -24 15 -25 67 -20 62 6 99 -11 87 -40 -3 -9 1 -18 10 -22 17 -6
184 36 248 62 45 19 41 32 -5 16 -40 -14 -45 -9 -29 29 16 39 27 45 47 28 12
-10 17 -10 20 -1 5 14 48 1 74 -23 14 -12 20 -12 50 2 61 28 64 31 67 63 3 27
6 30 18 20 8 -6 14 -18 14 -26 0 -20 25 -26 50 -13 19 10 26 8 49 -14 21 -20
34 -25 61 -21 19 3 96 12 170 21 225 26 339 51 384 85 22 16 53 29 69 29 16 0
44 12 65 29 31 24 55 31 153 45 64 9 133 20 153 23 35 6 38 4 34 -18 -3 -21
-10 -25 -54 -30 -103 -13 -247 -74 -296 -126 -51 -53 -73 -119 -73 -213 1
-101 26 -166 104 -263 53 -67 163 -176 224 -221 21 -16 35 -32 31 -35 -3 -3
-49 -6 -102 -6 -87 0 -102 -3 -142 -27 -25 -15 -54 -40 -65 -57 -24 -37 -35
-39 -35 -7 0 22 70 138 91 151 5 4 9 18 9 33 0 32 -73 109 -129 137 -49 24
-135 23 -194 -3 -106 -47 -222 -127 -306 -211 -47 -47 -99 -90 -116 -96 -36
-14 -59 -57 -86 -163 -45 -177 -6 -347 114 -494 53 -66 81 -107 75 -113 -8 -8
-126 114 -160 167 -57 87 -91 182 -96 273 -5 98 9 162 84 388 31 93 54 170 53
172 -8 7 -122 -16 -172 -35 -29 -11 -88 -42 -131 -69 -43 -28 -99 -57 -124
-65 -25 -9 -69 -34 -98 -56 -150 -113 -246 -324 -262 -575 l-7 -110 -20 30
c-16 23 -20 46 -20 105 1 89 27 181 90 317 31 65 39 93 30 93 -16 0 -74 -99
-105 -180 -23 -61 -51 -90 -85 -90 -27 0 -41 -31 -51 -118 -14 -131 46 -263
186 -402 205 -205 555 -388 980 -514 528 -155 982 -238 1995 -366 252 -31 375
-59 515 -115 47 -19 76 -27 66 -20 -36 27 -171 78 -281 105 -60 16 -227 44
-370 64 -1174 164 -1294 187 -1840 342 -347 99 -593 223 -772 388 -164 152
-223 296 -223 542 0 284 137 485 395 579 107 40 110 36 73 -118 -17 -67 -35
-173 -41 -236 l-12 -113 -33 46 c-18 25 -39 46 -47 46 -23 0 -64 -63 -75 -118
-22 -99 27 -234 122 -338 59 -64 232 -196 364 -277 290 -178 632 -298 1014
-357 36 -5 324 -37 640 -70 316 -33 604 -67 640 -75 253 -55 440 -190 586
-421 22 -34 45 -70 52 -80 7 -11 -29 64 -80 166 -83 167 -99 192 -162 256
-129 129 -276 181 -701 248 -403 64 -748 124 -871 151 -168 38 -449 132 -589
199 -423 201 -627 486 -564 788 33 157 189 319 388 403 92 38 161 44 200 16
17 -12 31 -27 31 -33 0 -6 -12 -41 -27 -77 -23 -56 -27 -81 -27 -166 0 -113
19 -176 80 -266 19 -28 28 -49 20 -47 -15 3 -63 64 -176 220 -39 53 -80 104
-92 113 -54 37 -147 3 -198 -74 -62 -92 -58 -196 12 -301 48 -73 113 -132 238
-215 338 -226 694 -360 1248 -470 74 -15 135 -25 138 -23 2 2 -65 19 -149 37
-409 89 -763 220 -973 361 -113 76 -213 180 -254 263 -18 37 -30 70 -27 73 3
3 101 -33 219 -80 439 -175 735 -268 1038 -326 324 -61 435 -90 568 -150 198
-90 366 -265 503 -523 27 -51 49 -89 49 -86 0 14 -41 123 -48 129 -5 3 -57
100 -116 215 -59 116 -146 269 -193 340 -281 426 -392 522 -960 828 -389 210
-499 283 -623 413 -90 95 -131 176 -131 261 -1 94 31 152 111 202 82 52 142
66 275 65 98 0 132 -4 185 -23 210 -73 404 -271 535 -546 23 -49 63 -149 88
-222 49 -141 97 -243 154 -329 20 -30 37 -54 39 -54 1 0 -13 34 -32 75 -52
112 -100 264 -144 454 -49 213 -88 294 -233 480 l-50 64 19 35 c67 125 304
149 503 51 151 -74 254 -206 281 -358 20 -111 -2 -210 -87 -396 -149 -325
-149 -415 -2 -748 82 -186 154 -333 168 -341 5 -3 -5 27 -21 67 -43 105 -78
249 -85 352 -7 113 19 228 72 315 71 118 229 230 322 230 118 0 222 -123 223
-262 0 -37 -10 -67 -47 -137 -40 -79 -58 -100 -126 -158 -116 -99 -221 -222
-237 -278 -30 -109 6 -301 89 -476 26 -55 30 -59 26 -29 -14 100 -17 252 -6
293 19 67 77 134 171 199 298 204 359 256 463 396 99 135 161 158 235 89 68
-63 86 -172 43 -262 -15 -31 -57 -83 -110 -135 -71 -70 -124 -108 -294 -213
-113 -70 -210 -133 -214 -140 -4 -7 6 -4 21 7 16 10 99 59 185 109 221 127
354 220 441 307 92 92 123 151 128 242 4 59 0 75 -25 130 -65 137 -186 223
-330 235 -121 10 -153 -15 -178 -139 -37 -186 -67 -241 -165 -305 -35 -23 -66
-40 -68 -38 -2 2 5 16 17 31 11 15 21 35 21 45 0 10 9 33 20 51 11 18 20 40
20 49 0 9 10 29 22 44 22 28 22 29 5 108 -22 110 -59 181 -131 252 -121 120
-254 159 -359 105 -60 -30 -154 -123 -218 -214 -27 -38 -49 -64 -49 -59 0 16
65 173 103 250 19 37 44 99 57 136 22 69 61 127 85 127 7 0 25 10 40 23 16 12
60 40 99 62 74 42 97 75 54 75 -13 0 -32 7 -42 15 -11 8 -28 15 -39 15 -11 0
-38 15 -61 32 -50 40 -130 118 -125 123 13 12 62 -11 75 -37 8 -16 30 -36 49
-45 19 -9 35 -20 35 -24 0 -10 50 -27 99 -32 40 -5 46 -3 82 35 43 46 43 61 0
35 -41 -24 -51 -21 -51 12 0 24 6 31 43 45 59 22 63 21 81 -24 14 -36 19 -40
42 -34 18 5 32 0 49 -16 24 -22 26 -22 44 -6 10 10 27 16 36 14 17 -3 28 10
39 45 7 22 36 22 36 0 0 -19 28 -53 43 -53 6 0 31 17 56 39 26 21 65 48 89 60
l42 21 0 -64 c0 -36 4 -67 9 -71 20 -11 123 8 128 24 3 9 21 30 40 47 45 40
41 68 -4 30 -28 -23 -35 -25 -52 -14 -29 18 -26 32 10 62 35 30 69 41 103 32
36 -9 38 -30 10 -91 -21 -45 -30 -55 -51 -55 -14 0 -23 -5 -21 -12 4 -11 123
-13 161 -2 21 7 22 37 1 69 -13 20 -14 28 -4 40 18 21 32 6 54 -55 20 -55 38
-70 87 -70 19 0 37 -7 45 -17 7 -10 16 -15 20 -11 7 8 -5 37 -28 70 -14 20
-12 23 24 32 20 4 34 0 57 -20 35 -29 41 -55 12 -47 -10 3 -22 -1 -26 -8 -10
-16 21 -39 54 -39 13 0 43 -9 65 -20 38 -18 178 -31 191 -18 3 3 -3 16 -14 29
-16 20 -17 28 -6 42 18 25 35 21 35 -9 0 -41 16 -62 44 -57 18 4 26 0 31 -17
5 -17 13 -21 32 -17 14 3 60 -7 101 -21 53 -17 77 -22 80 -14 5 16 36 15 78
-3 31 -13 39 -13 63 0 31 16 57 43 48 51 -6 7 -46 -13 -66 -33 -19 -19 -27 -7
-35 50 -7 46 -6 47 18 47 14 0 35 9 45 19 11 11 30 21 42 23 29 4 37 28 9 28
-27 0 -80 -27 -80 -41 0 -6 -5 -7 -11 -3 -16 9 50 74 76 74 13 0 28 12 39 31
17 28 20 30 34 15 13 -12 13 -19 4 -28 -19 -19 -14 -41 13 -61 30 -22 45 -15
45 21 0 33 -56 106 -73 95 -18 -11 -36 -12 -42 -2 -9 14 41 59 65 59 48 0 130
-63 130 -100 0 -14 -33 -13 -49 3 -10 10 -12 8 -9 -8 2 -14 12 -21 35 -23 37
-4 72 -37 56 -53 -8 -8 -15 -6 -25 10 -7 11 -16 21 -19 21 -4 0 -19 -29 -34
-65 -26 -59 -55 -86 -55 -51 0 24 -72 -6 -89 -36 -17 -29 -8 -78 14 -78 11 0
14 7 9 25 -3 14 -3 32 0 41 11 28 36 -4 36 -45 0 -63 16 -74 111 -78 59 -3 89
-9 101 -20 20 -18 34 -10 40 22 2 11 11 21 20 23 13 2 17 -5 20 -34 3 -34 6
-38 48 -50 52 -15 60 -11 90 52 24 48 31 52 50 29 12 -14 15 -14 30 0 22 20
31 9 54 -67 22 -72 46 -96 82 -80 35 16 99 15 113 -2 8 -10 9 -16 1 -21 -19
-12 -10 -35 23 -55 30 -19 33 -19 45 -3 17 24 16 28 -15 40 l-28 11 25 1 c14
0 41 -9 60 -20 22 -14 36 -17 38 -10 5 15 29 14 34 -1 2 -6 25 -11 54 -11 44
0 63 -9 64 -28 0 -4 -29 -4 -65 -1 -48 3 -65 1 -65 -8 0 -8 -8 -10 -25 -6 -28
7 -35 -11 -7 -20 9 -3 60 -25 112 -49 52 -23 106 -46 120 -50 35 -10 194 -88
198 -97 7 -15 21 -8 27 12 9 29 19 25 34 -16 7 -19 20 -38 29 -41 10 -3 35
-13 57 -23 22 -10 51 -23 65 -29 14 -6 33 -17 44 -23 15 -10 19 -10 23 0 3 6
13 12 24 12 23 0 52 -64 46 -99 -7 -33 40 -83 79 -85 16 0 39 3 52 7 19 7 22
5 22 -17 0 -44 82 -89 96 -52 3 8 1 23 -4 33 -9 16 -6 18 21 16 18 -1 34 -2
36 -2 2 -1 -2 -7 -8 -15 -17 -21 -4 -162 20 -209 10 -21 19 -44 19 -51 0 -8
17 -28 38 -44 l37 -30 -27 -29 c-32 -33 -34 -49 -12 -81 11 -15 22 -21 34 -17
23 7 60 -10 60 -28 0 -7 -10 -17 -22 -22 -29 -13 -25 -42 9 -74 l27 -23 -43
-40 c-52 -49 -61 -72 -59 -148 1 -49 5 -61 21 -66 17 -5 17 -8 -12 -38 -17
-17 -36 -47 -42 -66 -7 -19 -20 -47 -31 -62 -23 -33 -23 -34 2 -41 29 -7 25
-27 -6 -27 -44 0 -67 -18 -59 -47 7 -30 -7 -43 -45 -43 -17 0 -40 -15 -67 -43
-74 -76 -246 -208 -368 -282 -110 -66 -121 -75 -136 -116 -9 -24 -20 -52 -24
-62 -6 -14 -2 -20 14 -24 32 -8 26 -18 -20 -32 -23 -7 -47 -15 -55 -18 -8 -3
-18 5 -24 21 -5 14 -14 26 -19 26 -5 0 -23 11 -39 25 -30 25 -31 25 -37 5 -7
-24 -15 -25 -40 -6 -16 12 -34 8 -136 -26 l-118 -39 20 -34 c14 -23 18 -42 13
-60 -10 -39 -30 -41 -60 -6 -18 21 -35 31 -54 31 -41 0 -76 -39 -50 -55 14 -9
12 -35 -2 -35 -7 0 -22 12 -34 27 l-21 27 -77 -28 c-68 -25 -78 -32 -83 -57
-7 -35 -7 -35 -45 -8 -34 24 -43 20 -34 -15 10 -40 35 -48 87 -25 24 11 98 31
164 44 105 21 204 48 310 83 17 5 53 17 80 26 28 9 64 18 80 20 59 7 359 124
576 226 14 6 31 27 38 46 11 31 29 43 44 28 3 -3 1 -17 -4 -31 -14 -37 -3 -41
29 -10 16 15 39 27 52 27 20 0 76 21 129 49 20 10 37 39 28 47 -4 4 -18 -3
-32 -16 l-25 -23 0 30 c0 17 -3 39 -7 49 -6 16 -5 16 16 2 12 -9 31 -14 42
-11 11 3 21 -1 25 -11 6 -16 57 -22 89 -10 14 6 14 9 -1 32 -16 24 -16 26 2
39 17 12 20 11 28 -7 9 -21 50 -28 61 -10 3 6 15 10 26 10 19 0 27 7 97 84 26
28 38 35 57 30 26 -6 45 17 45 55 0 17 6 21 31 21 23 0 45 12 83 45 28 25 71
60 96 78 62 45 101 100 144 203 61 145 79 239 73 374 -4 80 -12 135 -27 180
-28 83 -95 210 -151 286 -58 79 -218 244 -237 244 -8 0 -20 -7 -27 -16 -9 -14
-16 -14 -33 -5 -24 13 -28 32 -11 63 8 16 8 22 -2 29 -19 11 -26 4 -33 -36 -9
-47 -26 -45 -26 4 0 24 -5 41 -14 44 -8 3 -16 21 -18 39 -3 30 -7 34 -48 44
-29 7 -46 17 -48 28 -2 9 -10 15 -17 14 -16 -3 -85 68 -85 88 0 10 -9 12 -30
8 -22 -5 -31 -2 -36 10 -4 11 -13 14 -30 10 -21 -5 -24 -3 -22 17 3 20 -2 25
-27 27 -16 2 -38 12 -47 22 -9 10 -31 21 -48 25 -16 4 -30 13 -30 21 0 15 -9
17 -47 14 -13 -1 -33 10 -46 24 -14 14 -29 26 -34 26 -6 0 -36 11 -66 25 -37
17 -64 24 -81 19 -22 -5 -27 -2 -36 21 -9 25 -14 27 -48 22 -20 -3 -47 -9 -59
-13 -27 -8 -31 10 -8 33 24 24 14 46 -25 55 -19 5 -44 13 -55 18 -30 14 -88
-2 -100 -28 -12 -27 -41 -29 -54 -3 -8 14 -7 20 3 24 8 3 33 18 56 32 47 30
43 48 -13 59 -49 10 -207 88 -207 102 0 18 -19 27 -33 16 -23 -19 -77 -2 -93
29 -17 33 -39 40 -29 9 7 -23 -14 -36 -41 -26 -15 6 -15 8 0 25 17 18 16 20
-3 26 -15 4 -21 15 -21 34 0 16 -10 37 -25 51 l-25 24 -28 -21 c-43 -31 -64
-35 -95 -14 -24 15 -35 17 -63 8 -31 -9 -38 -8 -57 11 -16 17 -18 22 -6 22 8
0 20 -5 27 -12 9 -9 12 -9 12 0 0 37 -82 78 -129 65 -12 -3 -40 3 -62 13 -33
14 -44 15 -60 6 -16 -10 -22 -9 -36 8 -10 11 -29 20 -43 20 -14 0 -34 7 -44
15 -25 19 -56 19 -83 0 -19 -13 -22 -13 -27 1 -3 8 -26 24 -51 35 l-46 20 -28
-30 c-33 -35 -39 -37 -55 -15 -10 13 -16 14 -39 3 -20 -9 -31 -9 -38 -2 -17
17 27 36 67 30 19 -3 34 -2 34 2 0 33 -84 43 -116 13 -19 -18 -20 -18 -58 14
-44 38 -116 55 -141 34 -9 -7 -16 -11 -18 -9 -1 2 -7 13 -13 24 -9 16 -21 20
-55 19 -28 -1 -47 4 -52 12 -4 8 -17 14 -28 14 -11 0 -29 5 -40 11 -27 14 -49
-5 -49 -43 0 -23 -4 -29 -17 -26 -14 3 -17 12 -15 46 2 37 0 42 -22 48 -26 6
-92 -11 -101 -27 -4 -5 -22 7 -40 27 -29 31 -39 36 -67 31 -21 -3 -47 2 -70
14 -21 11 -50 19 -65 20 -48 1 -117 34 -124 60 -7 23 -7 23 -8 -3 -2 -46 -33
-39 -124 25 -25 18 -26 18 -67 -8 l-41 -26 -43 32 -44 31 -31 -23 -31 -23 -30
29 c-23 22 -33 26 -42 17 -15 -15 -74 -16 -83 -2 -10 16 -43 11 -54 -7 -9 -17
-11 -16 -26 5 -19 25 -43 29 -51 7 -9 -22 -31 -18 -37 5 -7 26 -52 27 -91 1
-24 -16 -34 -18 -50 -8 -27 14 -163 14 -178 -1 -8 -8 -18 -7 -39 5 -23 14 -33
15 -54 5 -21 -10 -40 -8 -104 8 -98 25 -168 23 -183 -4 -10 -19 -11 -19 -24
-1 -8 10 -28 24 -46 30 -18 7 -41 16 -50 19 -12 6 -21 -1 -33 -24 l-16 -31
-29 30 c-31 34 -61 39 -80 16 -7 -8 -21 -15 -31 -15 -19 0 -43 33 -32 44 11
10 967 7 1138 -4 421 -28 1028 -131 1630 -276 562 -136 649 -158 809 -211 168
-55 216 -78 596 -276 91 -47 278 -137 415 -200 328 -150 512 -242 665 -333
155 -93 242 -157 434 -323 l151 -130 69 -156 c38 -86 74 -159 79 -162 14 -9 1
196 -18 275 -23 95 -70 209 -119 289 -24 39 -49 87 -55 106 -16 46 -149 188
-264 280 -506 407 -1094 697 -1857 916 -756 216 -1473 342 -2330 408 -287 22
-1218 25 -1495 5 -886 -64 -1429 -152 -2210 -358 -621 -164 -1322 -468 -1770
-767 -406 -272 -650 -553 -750 -867 -37 -114 -46 -323 -20 -451 68 -339 293
-597 785 -902 63 -39 135 -87 160 -105 25 -19 56 -40 70 -46 14 -6 59 -35 100
-65 78 -56 327 -182 559 -281 105 -46 138 -56 151 -47 14 8 22 6 40 -11 41
-38 100 -36 100 4 0 8 6 14 14 14 10 0 16 -13 18 -37 3 -43 14 -50 123 -81 39
-11 101 -32 139 -46 38 -14 88 -26 112 -26 24 0 67 -9 96 -20 63 -23 263 -69
332 -76 62 -6 80 -16 81 -45 0 -21 8 -24 98 -39 53 -9 97 -15 97 -13 0 2 -18
10 -40 19 -23 9 -39 22 -37 28 6 16 66 9 84 -10 22 -21 38 -12 41 24 4 35 -13
44 -21 12 -9 -36 -25 -21 -25 25 0 41 2 45 23 45 13 0 27 -4 30 -10 3 -5 19
-10 36 -10 18 0 29 -5 29 -14 0 -8 -8 -13 -17 -12 -34 2 -28 -48 11 -89 70
-74 52 -78 -171 -40 -622 107 -1283 307 -1813 550 -578 265 -1045 645 -1249
1016 -327 597 -28 1270 786 1767 470 288 1022 525 1611 692 712 202 1721 355
2587 393 182 8 991 6 1165 -3z m-1255 -319 l30 -7 -28 -18 c-23 -16 -33 -17
-71 -7 -25 6 -56 11 -71 11 -25 0 -25 0 -10 -36 18 -45 18 -44 0 -44 -8 0 -17
11 -21 24 -3 13 -16 28 -30 35 -39 17 -30 39 19 44 68 6 150 5 182 -2z m-290
-11 c11 18 35 11 35 -11 0 -16 -5 -20 -20 -16 -22 6 -40 -17 -40 -52 0 -12 -4
-21 -10 -21 -5 0 -10 6 -10 14 0 30 -30 46 -82 43 -50 -2 -52 -3 -61 -37 -12
-46 -21 -57 -63 -70 -31 -11 -37 -9 -74 22 -22 18 -40 41 -40 52 0 16 -5 17
-36 12 -33 -7 -35 -5 -32 15 2 15 12 26 28 30 37 10 148 10 154 0 7 -11 -13
-28 -38 -32 -51 -10 -44 -71 10 -77 38 -5 54 19 54 80 l0 48 38 -5 c20 -3 64
-2 97 3 34 5 65 4 72 0 6 -5 14 -5 18 2z m-2337 -442 c-5 -15 -35 -34 -43 -27
-3 4 -3 14 1 23 7 18 48 23 42 4z m132 -52 c0 -10 -72 -48 -78 -41 -10 10 36
45 59 45 10 0 19 -2 19 -4z m-520 -120 c0 -18 -17 -29 -30 -21 -8 5 -7 11 1
21 15 18 29 18 29 0z m4910 -173 c-1 -19 -30 -45 -45 -40 -20 8 -19 34 3 40
28 8 42 7 42 0z m1920 -83 c0 -5 -4 -10 -10 -10 -5 0 -10 5 -10 10 0 6 5 10
10 10 6 0 10 -4 10 -10z m-2970 -135 c0 -12 -28 -35 -44 -35 -11 0 -6 19 10
34 19 20 34 20 34 1z m3358 -26 c28 -25 19 -46 -11 -26 -22 15 -36 47 -20 47
5 0 19 -9 31 -21z m-288 -114 c0 -27 -10 -31 -42 -14 -21 11 -21 12 -3 25 28
21 45 17 45 -11z m-7270 -20 c-15 -18 -40 -20 -40 -4 0 7 8 18 18 25 22 16 40
1 22 -21z m7274 -51 c15 -6 23 -34 10 -34 -13 0 -44 21 -44 30 0 11 11 13 34
4z m-7486 -66 c8 -8 8 -17 0 -31 -8 -16 -12 -17 -19 -6 -11 18 -12 49 -1 49 4
0 13 -5 20 -12z m7674 -69 c16 -9 15 -39 -2 -39 -8 0 -82 30 -89 35 -1 2 0 9
4 15 7 12 55 5 87 -11z m628 -125 c0 -8 -4 -12 -10 -9 -5 3 -10 10 -10 16 0 5
5 9 10 9 6 0 10 -7 10 -16z m758 -194 l23 -30 -23 -30 c-16 -22 -24 -27 -30
-18 -10 17 -10 108 0 108 5 0 18 -13 30 -30z m-6435 -18 c50 -22 164 -60 252
-87 270 -80 505 -167 755 -278 291 -129 409 -224 571 -460 69 -100 71 -139 2
-45 -169 230 -383 348 -858 472 -235 62 -318 88 -445 144 -190 82 -339 182
-375 253 -27 51 -23 51 98 1z m6230 24 c3 -8 -1 -17 -9 -20 -9 -4 -14 1 -14
14 0 23 15 27 23 6z m-10473 -823 c36 -129 66 -195 143 -311 206 -313 573
-600 1108 -868 603 -302 1248 -495 2150 -643 736 -122 1353 -176 2139 -188
929 -14 1878 64 2782 228 1001 181 1885 508 2509 928 252 170 464 362 582 528
68 95 155 260 188 353 28 80 35 90 32 42 -1 -20 -7 -120 -13 -222 -92 -1561
-516 -3107 -1133 -4135 -437 -729 -1045 -1354 -1722 -1771 -121 -74 -125 -60
-5 18 147 96 687 509 699 534 15 33 14 74 -3 159 -47 230 -18 519 90 893 57
199 491 1535 548 1689 179 479 335 731 589 952 69 60 96 89 91 100 -20 53 -11
220 26 436 17 101 17 112 3 143 -9 19 -22 36 -29 39 -8 3 -49 -15 -91 -40
-574 -329 -1076 -528 -1811 -717 -35 -9 -42 -15 -37 -28 24 -62 79 -275 96
-376 27 -152 37 -525 20 -702 -34 -351 -113 -718 -262 -1219 -83 -280 -97
-322 -189 -550 -196 -487 -438 -853 -777 -1175 -433 -410 -927 -643 -1543
-726 -184 -25 -612 -29 -900 -10 -449 31 -660 60 -1207 170 -455 92 -625 146
-934 301 -1214 609 -2115 1745 -2665 3358 -281 828 -477 1873 -509 2722 -3 88
-8 171 -11 185 -4 19 -3 22 6 13 7 -6 25 -55 40 -110z m13241 -87 c178 -24
261 -63 298 -139 27 -55 26 -92 -2 -141 -49 -85 -138 -109 -572 -155 -471 -50
-702 -54 -780 -14 -70 37 -105 89 -105 158 0 27 8 40 43 70 121 105 336 186
577 219 138 18 408 19 541 2z m-11999 -561 c-4 -36 -7 -39 -27 -32 -15 6 -21
48 -8 61 17 17 38 0 35 -29z m98 -11 c0 -4 -9 -22 -21 -41 -17 -27 -24 -31
-35 -22 -14 12 -12 22 14 52 15 16 42 24 42 11z m8620 -65 c0 -6 -11 -20 -25
-31 -19 -15 -24 -25 -19 -44 3 -13 2 -24 -2 -24 -12 1 -60 38 -54 42 3 2 22
18 43 36 39 33 57 40 57 21z m-199 -292 c-8 -8 -11 -4 -11 14 0 33 14 47 18
19 2 -12 -1 -27 -7 -33z m-7327 -3 c18 -7 21 -30 6 -39 -13 -8 -40 13 -40 31
0 15 10 17 34 8z m10961 -28 c39 -8 99 -25 135 -39 52 -19 70 -32 95 -68 17
-24 51 -55 76 -69 42 -24 46 -31 76 -120 74 -219 62 -477 -33 -740 -51 -143
-151 -324 -183 -333 -12 -3 -23 -19 -30 -42 -11 -41 -14 -45 -134 -166 -96
-99 -119 -110 -150 -81 -12 12 -55 34 -96 51 -40 16 -83 39 -95 49 -11 11 -38
27 -59 36 -22 9 -52 27 -69 41 -16 14 -34 25 -40 25 -5 0 -54 25 -109 55 -261
147 -670 340 -989 466 -225 89 -218 86 -232 131 -13 46 0 65 65 96 41 19 102
79 180 175 21 26 43 47 50 47 7 0 32 21 57 46 25 24 55 47 68 51 12 3 35 17
50 32 36 36 186 128 308 189 181 90 388 156 569 181 95 13 404 5 490 -13z
m-4179 -68 c-4 -13 -9 -36 -13 -53 -6 -30 -6 -30 15 -12 22 20 53 20 59 1 4
-12 -47 -34 -77 -34 -11 0 -20 10 -24 25 -3 13 -16 30 -28 36 -19 10 -20 9
-14 -7 4 -11 10 -32 13 -49 6 -27 5 -29 -10 -17 -15 13 -43 80 -35 86 14 13
87 45 102 46 14 0 17 -5 12 -22z m5013 -968 c-203 -854 -547 -1243 -1403
-1590 -163 -66 -156 -63 -156 -52 0 4 16 14 35 21 19 6 56 27 82 45 27 18 60
37 73 41 50 15 212 95 297 146 188 112 323 217 477 367 290 286 463 592 572
1014 33 126 53 132 23 8z m-2616 -46 c442 -193 769 -352 1007 -489 158 -91
440 -274 440 -285 0 -10 -309 -226 -319 -223 -4 1 -71 42 -149 92 -357 229
-910 507 -1179 595 -29 10 -53 19 -53 21 0 2 18 79 40 172 22 92 40 171 40
176 0 14 23 6 173 -59z m-11389 -192 c24 -76 47 -159 51 -183 l7 -45 -139 -63
c-427 -196 -854 -461 -1189 -738 -170 -140 -430 -397 -561 -553 -258 -308
-447 -665 -522 -990 -42 -179 -55 -308 -55 -515 0 -198 1 -202 38 -350 110
-438 267 -709 621 -1073 225 -232 410 -385 700 -577 591 -393 1333 -715 2260
-980 735 -211 1495 -365 2295 -465 135 -17 251 -33 258 -35 18 -6 650 -51 947
-67 320 -17 1579 -17 1840 0 1160 77 1921 181 2790 382 1613 372 2900 934
3726 1625 230 192 501 532 614 767 97 203 172 457 196 660 14 125 7 384 -16
518 -71 427 -273 829 -600 1189 -47 52 -82 98 -78 102 27 25 379 269 389 269
17 0 222 -215 315 -332 215 -268 372 -577 450 -882 58 -226 78 -580 44 -778
-94 -543 -379 -1024 -876 -1473 -170 -154 -297 -250 -539 -412 -469 -312 -841
-509 -1450 -768 -526 -223 -1071 -402 -1716 -564 -1097 -275 -2088 -421 -3274
-483 -324 -17 -1563 -17 -1875 0 -1475 81 -2758 306 -4059 713 -734 229 -1476
563 -2006 901 -541 345 -956 741 -1216 1160 -78 126 -195 370 -238 498 -73
218 -97 338 -103 530 -19 584 191 1092 671 1623 214 237 472 453 841 708 351
242 555 370 805 507 68 37 602 311 607 312 1 0 22 -62 47 -138z m11363 -252
c352 -140 656 -298 967 -501 67 -44 127 -77 133 -74 7 2 13 1 13 -3 0 -11
-160 -103 -315 -182 -268 -137 -609 -266 -988 -376 -175 -50 -546 -139 -553
-131 -2 1 30 80 71 175 132 308 260 655 375 1020 28 89 55 162 60 162 5 0 112
-41 237 -90z m-11238 -162 c160 -493 455 -1146 704 -1563 170 -284 444 -651
695 -930 41 -45 72 -89 72 -101 0 -11 -11 -53 -25 -94 -76 -223 -77 -467 -3
-685 112 -329 401 -666 803 -935 222 -148 404 -244 660 -345 448 -178 804
-270 1375 -355 360 -54 392 -57 745 -71 800 -32 1505 22 2150 166 750 167
1324 404 1768 730 153 113 369 327 457 453 247 352 305 740 164 1093 l-36 88
132 154 c72 85 140 169 151 186 10 17 29 36 41 41 13 6 291 87 618 181 964
276 1105 321 1500 479 273 109 496 211 779 356 134 69 247 121 252 117 46 -49
243 -294 279 -348 454 -676 516 -1375 181 -2044 -109 -216 -326 -504 -497
-657 -390 -349 -866 -654 -1412 -903 -425 -194 -1108 -442 -1612 -585 -1484
-420 -3338 -639 -4980 -587 -1453 46 -2821 250 -3985 595 -1940 574 -3114
1443 -3374 2498 -126 511 0 1108 344 1622 214 320 542 654 910 926 244 180
603 395 853 512 145 67 237 108 247 108 6 0 26 -46 44 -102z m12942 -157 c-72
-100 -360 -332 -560 -451 -275 -162 -675 -328 -953 -394 -45 -10 -32 10 15 23
75 23 338 132 482 201 324 155 658 364 939 589 49 39 91 69 94 67 2 -3 -5 -18
-17 -35z m-16421 -2745 c56 -282 188 -580 378 -854 502 -727 1374 -1341 2622
-1847 1357 -551 2835 -877 4535 -999 896 -65 1940 -69 2770 -10 881 62 1710
174 2455 333 179 38 329 67 333 64 5 -3 5 -9 0 -14 -9 -9 -215 -56 -418 -94
-77 -15 -156 -35 -175 -45 -19 -9 -47 -23 -62 -29 -52 -20 -27 -67 43 -82 22
-5 53 -19 68 -30 49 -36 96 -29 496 66 77 18 169 38 205 45 36 6 111 27 167
46 68 23 129 37 185 41 46 3 81 3 78 0 -8 -8 -582 -150 -810 -201 -1212 -267
-2375 -396 -3790 -422 -685 -12 -1651 42 -2425 136 -1550 189 -2945 571 -4165
1139 -326 152 -653 338 -964 548 -400 271 -657 485 -840 703 -39 47 -100 112
-135 145 -34 32 -83 91 -108 130 -25 38 -86 130 -135 203 -249 374 -377 819
-366 1271 6 243 21 264 29 41 5 -117 14 -211 29 -284z m5322 -16 c147 -123
306 -243 474 -358 l128 -87 29 -100 c109 -381 399 -695 868 -939 554 -288
1311 -446 2144 -446 605 0 1094 73 1735 260 74 22 227 62 340 89 347 85 671
192 1083 357 198 79 255 94 244 61 -4 -16 -132 -107 -260 -187 -568 -355
-1505 -619 -2487 -700 -348 -29 -975 -29 -1305 0 -66 5 -149 12 -185 15 -417
35 -937 131 -1295 240 -563 171 -988 394 -1354 709 -351 303 -547 723 -503
1078 11 92 30 176 51 231 l11 29 82 -77 c44 -42 134 -121 200 -175z m868 -590
c77 -43 216 -111 311 -150 233 -97 220 -90 214 -111 -7 -22 10 -30 230 -104
381 -128 726 -203 1160 -251 116 -13 260 -17 640 -19 502 -2 660 -12 866 -51
207 -39 309 -110 309 -214 0 -64 -51 -124 -125 -146 -82 -24 -222 -43 -419
-58 -179 -12 -208 -17 -192 -33 12 -12 202 -5 348 12 71 8 132 15 134 15 10 0
2 -24 -15 -47 -11 -13 -18 -30 -15 -37 6 -15 -93 -29 -331 -47 -193 -15 -704
-6 -883 15 -447 53 -754 123 -1206 276 -253 85 -407 153 -546 239 -250 156
-452 367 -565 591 -35 69 -75 172 -75 192 0 17 26 6 160 -72z m10100 -1993 c0
-2 -10 -12 -22 -23 l-23 -19 19 23 c18 21 26 27 26 19z m-80 -80 c0 -2 -17
-19 -37 -38 l-38 -34 34 38 c33 34 41 42 41 34z m-160 -161 c0 -2 -8 -10 -17
-17 -16 -13 -17 -12 -4 4 13 16 21 21 21 13z m-77 -93 c-7 -2 -19 -2 -25 0 -7
3 -2 5 12 5 14 0 19 -2 13 -5z m-103 -56 c0 -2 -17 -19 -37 -38 l-38 -34 34
38 c33 34 41 42 41 34z m-200 -181 c0 -2 -8 -10 -17 -17 -16 -13 -17 -12 -4 4
13 16 21 21 21 13z m-450 -300 c0 -2 -8 -10 -17 -17 -16 -13 -17 -12 -4 4 13
16 21 21 21 13z m-177 -113 c-7 -2 -19 -2 -25 0 -7 3 -2 5 12 5 14 0 19 -2 13
-5z m-56 -49 c-3 -3 -12 -4 -19 -1 -8 3 -5 6 6 6 11 1 17 -2 13 -5z m-320
-150 c-3 -3 -12 -4 -19 -1 -8 3 -5 6 6 6 11 1 17 -2 13 -5z m-154 -71 c-7 -2
-19 -2 -25 0 -7 3 -2 5 12 5 14 0 19 -2 13 -5z m-8568 -43 c3 -6 -1 -7 -9 -4
-18 7 -21 14 -7 14 6 0 13 -4 16 -10z m-188 -36 c-3 -3 -12 -4 -19 -1 -8 3 -5
6 6 6 11 1 17 -2 13 -5z m64 -31 c13 -16 12 -17 -3 -4 -10 7 -18 15 -18 17 0
8 8 3 21 -13z m8227 -70 c-10 -2 -26 -2 -35 0 -10 3 -2 5 17 5 19 0 27 -2 18
-5z m-1341 -369 c-3 -3 -12 -4 -19 -1 -8 3 -5 6 6 6 11 1 17 -2 13 -5z m-260
-50 c-3 -3 -12 -4 -19 -1 -8 3 -5 6 6 6 11 1 17 -2 13 -5z m-4849 -31 c-10 -2
-26 -2 -35 0 -10 3 -2 5 17 5 19 0 27 -2 18 -5z m4619 1 c-3 -3 -12 -4 -19 -1
-8 3 -5 6 6 6 11 1 17 -2 13 -5z m-4300 -50 c-3 -3 -12 -4 -19 -1 -8 3 -5 6 6
6 11 1 17 -2 13 -5z m90 -10 c-3 -3 -12 -4 -19 -1 -8 3 -5 6 6 6 11 1 17 -2
13 -5z m100 -10 c-3 -3 -12 -4 -19 -1 -8 3 -5 6 6 6 11 1 17 -2 13 -5z m210
-20 c-3 -3 -12 -4 -19 -1 -8 3 -5 6 6 6 11 1 17 -2 13 -5z m116 -11 c-7 -2
-19 -2 -25 0 -7 3 -2 5 12 5 14 0 19 -2 13 -5z m3184 1 c-3 -3 -12 -4 -19 -1
-8 3 -5 6 6 6 11 1 17 -2 13 -5z m-2940 -30 c-3 -3 -12 -4 -19 -1 -8 3 -5 6 6
6 11 1 17 -2 13 -5z m90 -10 c-3 -3 -12 -4 -19 -1 -8 3 -5 6 6 6 11 1 17 -2
13 -5z m2286 -11 c-13 -2 -35 -2 -50 0 -16 2 -5 4 22 4 28 0 40 -2 28 -4z
m-110 -10 c-7 -2 -19 -2 -25 0 -7 3 -2 5 12 5 14 0 19 -2 13 -5z m-2030 -10
c-13 -2 -33 -2 -45 0 -13 2 -3 4 22 4 25 0 35 -2 23 -4z m1920 0 c-7 -2 -19
-2 -25 0 -7 3 -2 5 12 5 14 0 19 -2 13 -5z m-1816 -9 c-3 -3 -12 -4 -19 -1 -8
3 -5 6 6 6 11 1 17 -2 13 -5z m391 -11 c-10 -2 -26 -2 -35 0 -10 3 -2 5 17 5
19 0 27 -2 18 -5z m895 0 c-13 -2 -35 -2 -50 0 -16 2 -5 4 22 4 28 0 40 -2 28
-4z m-635 -10 c-21 -2 -57 -2 -80 0 -24 2 -7 4 37 4 44 0 63 -2 43 -4z m325 0
c-23 -2 -64 -2 -90 0 -26 2 -7 3 42 3 50 0 71 -1 48 -3z"/>
<path d="M5781 15464 c-18 -25 -30 -34 -43 -30 -10 3 -27 9 -37 12 -21 7 -69
-33 -54 -46 4 -4 44 -4 88 -1 l80 6 0 32 c0 17 3 35 8 39 11 11 8 24 -5 24 -7
0 -24 -16 -37 -36z"/>
<path d="M11460 15385 c0 -8 5 -15 10 -15 6 0 10 7 10 15 0 8 -4 15 -10 15 -5
0 -10 -7 -10 -15z"/>
<path d="M11340 15369 c0 -13 41 -22 52 -11 6 6 -1 11 -21 14 -17 3 -31 1 -31
-3z"/>
<path d="M9440 15041 c0 -6 38 -47 83 -93 136 -135 217 -298 219 -443 1 -61
-3 -79 -32 -135 -27 -54 -29 -62 -11 -46 12 11 36 49 54 85 28 58 32 75 32
151 0 105 -28 196 -95 313 l-47 82 29 3 c17 2 67 -4 111 -13 274 -55 530 -192
663 -353 129 -157 175 -351 115 -488 -67 -150 -177 -234 -561 -429 -311 -157
-387 -203 -459 -275 -95 -95 -110 -176 -66 -355 26 -106 68 -232 61 -180 -15
98 -16 150 -6 206 32 177 130 254 480 374 572 197 866 377 975 597 64 130 53
211 -44 318 -52 59 -71 60 -71 4 0 -56 -22 -174 -31 -168 -5 3 -9 24 -9 47 -1
93 -70 235 -207 425 -60 83 -73 106 -63 117 14 17 39 9 197 -66 191 -89 392
-248 501 -397 214 -290 166 -536 -143 -740 -191 -126 -435 -233 -895 -392
-305 -105 -386 -142 -462 -210 -124 -111 -127 -247 -8 -382 37 -42 126 -98
180 -112 l25 -7 -25 20 c-14 11 -33 21 -43 21 -39 0 -138 84 -168 142 -57 110
24 231 220 328 32 16 257 88 500 159 243 72 480 147 527 166 346 143 573 333
634 532 44 143 15 272 -122 542 -43 85 -78 156 -78 158 0 10 87 0 138 -16 134
-41 276 -146 388 -284 215 -267 253 -471 127 -687 -96 -163 -347 -350 -623
-463 -47 -20 -274 -103 -505 -186 -450 -163 -535 -199 -613 -260 -119 -94
-122 -183 -11 -273 99 -79 123 -94 114 -73 -30 73 -12 138 60 208 112 110 319
208 749 353 393 133 582 228 776 389 152 127 219 225 250 366 18 80 8 248 -19
322 -114 321 -407 617 -741 751 -94 38 -240 79 -322 91 l-48 7 0 -36 c0 -30
11 -50 63 -114 148 -180 243 -330 281 -446 24 -70 39 -192 27 -213 -8 -15 -10
-16 -14 -3 -2 8 -12 42 -22 75 -28 96 -118 258 -184 329 -36 40 -340 281 -431
343 -136 91 -296 162 -460 203 -72 19 -100 15 -100 -12 0 -5 53 -65 118 -133
303 -318 405 -565 313 -761 -17 -35 -35 -64 -41 -64 -6 0 -9 8 -6 18 14 48 26
143 26 206 0 163 -59 279 -253 503 -85 97 -126 125 -158 105 -15 -9 -30 -4
-91 33 -40 25 -116 62 -169 84 -98 40 -333 107 -424 121 -110 18 -155 21 -155
11z m236 -194 c9 -16 13 -31 11 -33 -9 -10 -87 102 -87 123 1 11 57 -56 76
-90z"/>
<path d="M5533 14720 c-30 -17 -78 -60 -114 -102 -187 -218 -241 -336 -241
-529 1 -214 80 -378 273 -564 120 -116 214 -186 375 -281 527 -309 1157 -523
1804 -613 265 -37 429 -47 960 -61 195 -5 420 -16 500 -25 292 -31 606 -75
655 -91 99 -33 330 -83 340 -73 5 6 3 9 -7 9 -8 0 -103 25 -209 55 -384 110
-715 149 -1479 175 -596 20 -968 66 -1385 171 -617 156 -1259 471 -1545 758
-186 187 -262 367 -242 571 9 84 31 93 57 23 81 -217 252 -438 465 -604 171
-134 338 -231 624 -366 367 -173 630 -271 836 -312 239 -48 331 -53 1035 -61
525 -6 694 -11 779 -24 202 -29 376 -82 549 -165 53 -27 97 -47 97 -45 0 7
-218 148 -269 173 -185 93 -301 114 -1021 181 -611 58 -974 119 -1408 236
-294 79 -653 209 -842 304 -321 161 -545 369 -610 566 -50 148 -16 363 86 540
82 142 78 131 50 159 -32 32 -50 31 -113 -5z"/>
<path d="M14120 14599 c0 -18 60 -69 81 -69 28 0 23 14 -16 49 -36 31 -65 40
-65 20z"/>
<path d="M12120 14527 c0 -8 22 -45 50 -83 27 -38 67 -94 89 -124 62 -88 78
-94 37 -13 -20 40 -36 75 -36 78 0 15 34 -4 167 -91 176 -116 255 -193 306
-295 162 -331 39 -568 -468 -902 -293 -192 -599 -313 -995 -392 -412 -81 -627
-155 -728 -249 -41 -38 -58 -68 -67 -122 -11 -67 10 -59 35 14 13 37 30 75 38
84 22 27 196 112 297 147 50 17 201 53 336 81 493 100 817 206 1109 362 398
214 553 355 606 553 27 99 11 250 -39 367 -57 134 -208 302 -367 407 -84 55
-341 191 -362 191 -4 0 -8 -6 -8 -13z"/>
<path d="M11867 14004 c8 -115 -8 -169 -80 -276 -171 -256 -442 -438 -867
-581 -74 -25 -286 -86 -470 -137 -377 -103 -464 -134 -534 -187 -66 -51 -88
-94 -83 -158 5 -53 24 -112 33 -102 4 3 1 35 -6 70 -11 59 -10 69 8 110 11 24
35 56 54 70 75 57 113 70 898 290 229 64 353 109 508 183 255 121 436 272 511
426 49 100 66 191 52 278 -16 98 -30 106 -24 14z"/>
<path d="M4407 13920 c-29 -23 -37 -46 -12 -36 8 3 22 9 31 12 13 6 15 1 12
-27 -2 -25 1 -34 12 -34 17 0 15 32 -4 78 l-11 29 -28 -22z"/>
<path d="M9549 13663 c-13 -16 -12 -17 4 -4 16 13 21 21 13 21 -2 0 -10 -8
-17 -17z"/>
<path d="M8388 13663 c6 -2 18 -2 25 0 6 3 1 5 -13 5 -14 0 -19 -2 -12 -5z"/>
<path d="M8438 13653 c6 -2 18 -2 25 0 6 3 1 5 -13 5 -14 0 -19 -2 -12 -5z"/>
<path d="M4350 13597 c0 -41 5 -58 20 -72 28 -25 33 -15 20 35 -13 49 -10 56
19 40 16 -8 21 -20 21 -51 0 -26 5 -42 15 -45 20 -8 45 14 45 39 0 25 -47 77
-70 77 -9 0 -25 7 -36 15 -30 23 -34 18 -34 -38z"/>
<path d="M4590 13637 c0 -20 30 -57 46 -57 9 0 24 5 36 11 20 11 20 11 -3 35
-24 26 -79 34 -79 11z"/>
<path d="M8488 13643 c6 -2 18 -2 25 0 6 3 1 5 -13 5 -14 0 -19 -2 -12 -5z"/>
<path d="M9509 13633 c-13 -16 -12 -17 4 -4 16 13 21 21 13 21 -2 0 -10 -8
-17 -17z"/>
<path d="M8538 13633 c6 -2 18 -2 25 0 6 3 1 5 -13 5 -14 0 -19 -2 -12 -5z"/>
<path d="M8588 13623 c6 -2 18 -2 25 0 6 3 1 5 -13 5 -14 0 -19 -2 -12 -5z"/>
<path d="M8638 13613 c6 -2 18 -2 25 0 6 3 1 5 -13 5 -14 0 -19 -2 -12 -5z"/>
<path d="M8700 13600 c14 -4 34 -8 45 -8 16 0 15 2 -5 8 -14 4 -34 8 -45 8
-16 0 -15 -2 5 -8z"/>
<path d="M8778 13583 c7 -3 16 -2 19 1 4 3 -2 6 -13 5 -11 0 -14 -3 -6 -6z"/>
<path d="M4670 13482 c0 -14 151 -155 158 -148 3 4 -23 36 -59 72 -65 66 -99
92 -99 76z"/>
<path d="M4930 13296 c0 -27 19 -56 36 -56 23 0 13 40 -13 58 -21 13 -23 13
-23 -2z"/>
<path d="M5136 13164 c-9 -22 -9 -22 26 -20 26 1 33 -3 38 -23 7 -31 23 -37
41 -15 12 15 9 20 -21 45 -38 32 -75 38 -84 13z"/>
<path d="M4880 13096 c0 -9 7 -16 16 -16 9 0 14 5 12 12 -6 18 -28 21 -28 4z"/>
<path d="M5287 13074 c-10 -10 12 -44 27 -44 8 0 16 6 19 14 9 23 -28 48 -46
30z"/>
<path d="M5442 12958 c6 -18 28 -21 28 -4 0 9 -7 16 -16 16 -9 0 -14 -5 -12
-12z"/>
<path d="M11682 12414 c-30 -20 -68 -94 -49 -94 18 0 110 31 120 40 11 10 -20
70 -36 70 -7 0 -23 -7 -35 -16z"/>
<path d="M11243 12394 c-12 -8 -36 -15 -55 -15 -47 0 -198 -30 -198 -40 0 -15
36 -28 61 -23 13 3 40 14 59 24 19 9 60 20 91 23 69 7 140 27 133 38 -8 14
-67 9 -91 -7z"/>
<path d="M11590 12400 c-8 -5 -33 -10 -55 -10 -54 0 -63 -8 -71 -59 l-7 -44
39 7 c73 13 77 16 70 46 -5 30 6 40 45 40 10 0 19 7 19 15 0 17 -18 19 -40 5z"/>
<path d="M11413 12343 c-22 -45 -50 -52 -45 -10 4 28 -4 32 -45 21 -15 -4 -23
-17 -28 -41 -9 -50 2 -56 71 -41 51 12 59 17 62 38 2 14 8 29 13 35 5 5 9 15
9 22 0 25 -19 13 -37 -24z"/>
<path d="M11138 12324 c-32 -17 -46 -57 -28 -79 9 -11 24 -13 54 -9 61 9 86
53 50 88 -19 20 -41 20 -76 0z"/>
<path d="M10895 12321 c-6 -5 -19 -11 -31 -13 l-21 -3 21 -45 20 -45 9 43 c7
30 15 42 28 42 32 0 31 -19 -1 -60 -47 -59 -78 -56 -115 11 -20 37 -32 49 -44
45 -9 -3 -36 -10 -61 -16 -98 -25 -160 -78 -160 -136 0 -20 5 -24 33 -25 56
-2 80 2 157 26 41 12 125 33 185 46 61 12 114 26 118 30 18 15 -6 49 -54 78
-52 33 -69 37 -84 22z m-100 -91 c19 -36 19 -46 0 -54 -10 -4 -21 7 -35 34
-25 48 -25 50 0 50 11 0 26 -12 35 -30z m-115 13 c0 -13 -84 -93 -97 -93 -17
0 -16 6 4 37 24 36 93 78 93 56z m57 -35 c13 -12 23 -25 23 -30 0 -17 -29 -7
-44 14 -29 42 -16 51 21 16z m-39 -30 c2 -10 -6 -19 -18 -23 -27 -9 -31 -5
-23 23 6 26 36 26 41 0z"/>
<path d="M7288 12219 c-10 -5 -18 -18 -18 -29 0 -24 46 -60 75 -60 44 0 39 52
-7 84 -26 19 -27 19 -50 5z"/>
<path d="M6692 12213 c-19 -8 -3 -23 25 -23 21 0 24 2 13 15 -13 16 -17 17
-38 8z"/>
<path d="M10107 12209 c-73 -8 -97 -20 -97 -50 0 -28 -24 -23 -58 10 l-29 30
-171 -3 c-152 -2 -174 -4 -192 -21 -26 -24 -23 -68 4 -73 11 -2 53 -1 93 3
l75 7 -7 34 -6 34 46 0 c51 0 57 -11 23 -47 -16 -17 -18 -23 -7 -23 8 0 30 16
49 35 19 20 44 35 57 35 29 0 29 -14 1 -34 -12 -9 -20 -17 -17 -19 2 -2 117 0
254 5 138 4 267 5 289 2 30 -5 37 -3 34 7 -6 19 -43 36 -114 53 -78 19 -144
23 -227 15z m99 -31 c9 -15 -27 -41 -40 -28 -6 6 -5 15 4 25 15 18 26 19 36 3z"/>
<path d="M7430 12180 c-15 -28 7 -72 42 -84 40 -14 47 1 13 29 l-30 23 28 7
c24 6 26 10 15 20 -26 25 -56 27 -68 5z"/>
<path d="M9155 12193 c-22 -2 -75 -10 -118 -18 -47 -9 -85 -11 -95 -6 -9 4
-62 6 -117 2 -55 -3 -223 -2 -372 2 -254 8 -275 8 -310 -10 -31 -15 -39 -25
-44 -56 -3 -21 -14 -44 -24 -51 -16 -12 -12 -13 32 -6 66 11 89 24 107 59 19
36 61 54 101 43 25 -7 30 -14 33 -45 3 -36 2 -37 -42 -48 -25 -6 -43 -15 -40
-20 7 -12 61 -11 83 1 12 6 39 6 74 0 68 -11 173 -2 158 13 -32 32 18 37 57 6
26 -20 35 -20 200 -14 95 3 194 9 220 14 26 4 95 7 154 7 60 -1 108 2 108 6 0
13 -38 28 -55 22 -18 -7 -65 31 -65 53 0 11 5 10 25 -3 21 -13 25 -14 25 -2 0
8 -6 20 -12 27 -11 10 -4 12 31 9 41 -3 45 -5 58 -43 7 -22 17 -43 22 -48 14
-14 112 4 117 22 3 9 12 29 20 45 8 16 12 31 9 34 -7 7 -285 11 -340 5z"/>
<path d="M7607 12152 c-10 -10 -17 -24 -17 -30 0 -17 34 -32 75 -32 40 0 51
15 41 55 -5 21 -12 25 -45 25 -24 0 -44 -7 -54 -18z"/>
<path d="M7873 12149 c-37 -24 -42 -44 -14 -59 29 -15 81 -13 81 4 0 20 -21
76 -28 76 -4 0 -22 -10 -39 -21z"/>
<path d="M14558 13063 c6 -2 18 -2 25 0 6 3 1 5 -13 5 -14 0 -19 -2 -12 -5z"/>
<path d="M14591 13034 c0 -11 3 -14 6 -6 3 7 2 16 -1 19 -3 4 -6 -2 -5 -13z"/>
<path d="M14593 12815 c0 -22 2 -30 4 -17 2 12 2 30 0 40 -3 9 -5 -1 -4 -23z"/>
<path d="M14582 12705 c0 -16 2 -22 5 -12 2 9 2 23 0 30 -3 6 -5 -1 -5 -18z"/>
<path d="M14572 12610 c0 -14 2 -19 5 -12 2 6 2 18 0 25 -3 6 -5 1 -5 -13z"/>
<path d="M14561 12534 c0 -11 3 -14 6 -6 3 7 2 16 -1 19 -3 4 -6 -2 -5 -13z"/>
<path d="M14552 12460 c0 -14 2 -19 5 -12 2 6 2 18 0 25 -3 6 -5 1 -5 -13z"/>
<path d="M14542 12390 c0 -14 2 -19 5 -12 2 6 2 18 0 25 -3 6 -5 1 -5 -13z"/>
<path d="M14531 12324 c0 -11 3 -14 6 -6 3 7 2 16 -1 19 -3 4 -6 -2 -5 -13z"/>
<path d="M14521 12254 c0 -11 3 -14 6 -6 3 7 2 16 -1 19 -3 4 -6 -2 -5 -13z"/>
<path d="M14511 12194 c0 -11 3 -14 6 -6 3 7 2 16 -1 19 -3 4 -6 -2 -5 -13z"/>
<path d="M14481 12014 c0 -11 3 -14 6 -6 3 7 2 16 -1 19 -3 4 -6 -2 -5 -13z"/>
<path d="M7446 6559 c61 -29 190 -63 206 -53 4 3 8 9 8 13 0 8 -238 72 -262
70 -7 0 14 -14 48 -30z"/>
</g>
</svg>
