<?xml version='1.0' encoding='utf-8'?>
<svg xmlns="http://www.w3.org/2000/svg" height="512pt" viewBox="0 -12 512.00003 512" width="512pt"><path d="m395.277344 162.203125c-21.554688-40.425781-22.191406-88.785156-1.707032-129.761719l16.121094-32.226562c-1.457031-.054688-2.878906-.214844-4.34375-.214844-58.90625 0-106.65625 47.75-106.65625 106.652344v71.105468c.027344 56.996094 44.894532 103.882813 101.835938 106.414063 16.808594-39.355469 14.875-84.207031-5.25-121.96875zm0 0" fill="#523434"/><path d="m316.46875 177.757812v-71.101562c.023438-53.53125 39.742188-98.742188 92.824219-105.660156l.390625-.773438c-1.449219-.0625-2.871094-.222656-4.335938-.222656-58.90625 0-106.65625 47.75-106.65625 106.65625v71.101562c.027344 56.996094 44.894532 103.882813 101.835938 106.414063.320312-.738281.515625-1.503906.820312-2.242187-49.402344-10.226563-84.839844-53.722657-84.878906-104.171876zm0 0" fill="#92543e"/><path d="m442.035156 6.613281-12.921875 25.835938c-20.484375 40.976562-19.847656 89.339843 1.707031 129.761719 19.246094 36.132812 21.878907 78.832031 7.214844 117.054687 44.078125-14.191406 73.960938-55.203125 73.964844-101.507813v-71.101562c-.027344-44.722656-27.96875-84.671875-69.964844-100.042969zm0 0" fill="#523434"/><path d="m442.035156 6.613281-12.921875 25.835938c-.703125 1.414062-1.183593 2.898437-1.839843 4.320312 40.429687 16.152344 66.957031 55.285157 66.996093 98.824219v71.101562c.007813 13.890626-2.710937 27.648438-8 40.492188 16.636719-19.304688 25.769531-43.949219 25.730469-69.429688v-71.101562c-.027344-44.722656-27.96875-84.671875-69.964844-100.042969zm0 0" fill="#333"/><path d="m194.179688 386.042969c10.992187-36.105469 38.792968-64.648438 74.597656-76.585938l28.171875-9.394531c-.808594-.890625-1.546875-1.777344-2.398438-2.667969-34.320312-34.316406-89.960937-34.316406-124.277343 0l-41.425782 41.445313c-33.199218 33.21875-34.375 86.679687-2.667968 121.328125 32.722656-13.136719 57.726562-40.394531 68-74.125zm0 0" fill="#92543e"/><path d="m148.363281 360.464844 41.425781-41.390625c26.523438-26.492188 66.933594-33.234375 100.621094-16.789063l6.539063-2.1875c-.808594-.890625-1.546875-1.777344-2.398438-2.667968-34.320312-34.3125-89.957031-34.3125-124.277343 0l-41.425782 41.410156c-33.199218 33.21875-34.371094 86.679687-2.667968 121.328125 1.433593-.570313 2.753906-1.316407 4.160156-1.949219-14.824219-33.171875-7.65625-72.050781 18.023437-97.753906zm0 0" fill="#523434"/><path d="m312.066406 322.628906-22.574218 7.519532c-35.808594 11.9375-63.613282 40.484374-74.605469 76.59375-9.835938 32.261718-33.179688 58.675781-63.992188 72.398437 33.933594 17.414063 75.222657 10.953125 102.210938-15.996094l41.425781-41.425781c26.066406-26.074219 33.070312-65.65625 17.535156-99.089844zm0 0" fill="#92543e"/><path d="m113.355469 120.386719c39.640625-15.691407 84.429687-11.203125 120.171875 12.042969l28.113281 18.28125c.210937-1.332032.503906-2.664063.65625-3.980469 6.175781-54.476563-32.972656-103.644531-87.449219-109.828125l-65.769531-7.457032c-52.707031-5.941406-100.761719 30.636719-109.078125 83.023438 34.636719 19.664062 76.320312 22.574219 113.355469 7.917969zm0 0" fill="#a55f40"/><path d="m123.371094 53.96875 65.769531 7.457031c26.273437 2.9375 50.277344 16.269531 66.660156 37.015625-13.617187-33.808594-44.664062-57.4375-80.878906-61.546875l-65.769531-7.457031c-52.738282-5.980469-100.839844 30.609375-109.152344 83.03125 5.890625 3.265625 12.023438 6.074219 18.34375 8.40625 14.871094-44.265625 58.625-72.140625 105.027344-66.90625zm0 0" fill="#523434"/><path d="m252.332031 179.953125-22.539062-14.640625c-35.738281-23.246094-80.53125-27.726562-120.171875-12.023438-35.429688 14.007813-75.195313 11.964844-109.007813-5.601562 8.511719 42.242188 43.292969 74.167969 86.105469 79.039062l65.769531 7.457032c41.363281 4.660156 81.234375-17 99.84375-54.230469zm0 0" fill="#a55f40"/></svg>